# xmcd
#
# Track frame offsets:
#	150
#	18731
#	41079
#	61644
#	82229
#	100128
#	123855
#	141654
#	163148
#	191438
#	204527
#	227034
#	244443
#	268355
#	291792
#	313789
#	332383
#
# Disc length: 4660 seconds
#
# Revision: 1
# Processed by: cddbd v1.5.2PL0 Copyright (c) Steve Scherf et al.
# Submitted via: audiograbber 1.83.01
#
DISCID=04123211
DTITLE=DJ GK - Pianomusic
DYEAR=2003
DGENRE=Blues
TTITLE0=David Foster - 1988 Olympic Winter Games (instr.)
TTITLE1=Marc Cohn - Walk through this world
TTITLE2=Desree - Crazy maze
TTITLE3=Marc Cohn - Silver Thunderbird
TTITLE4=Vanessa Carlton - A thousand miles
TTITLE5=Don Henley - End of the innocence
TTITLE6=Sarah feat. Vann - Breathing room
TTITLE7=Vanessa Williams and Brian McKnight - Love is
TTITLE8=Elton John - Tiny dancer
TTITLE9=Billy Joel - Got to beg'n again
TTITLE10=Bruce Hornsby and the Range - The way it is
TTITLE11=Billy Joel - Honesty
TTITLE12=Tammy Wynette and Elton John - A woman needs
TTITLE13=Elton John feat. Mary J Blige - I guess that's why they call it the Bl
TTITLE13=ues (live)
TTITLE14=Elton John - Duets for one
TTITLE15=Billy Joel - Baby grand (Ray Charles Cover)
TTITLE16=David Foster - Water fountains
EXTD=
EXTT0=
EXTT1=
EXTT2=
EXTT3=
EXTT4=
EXTT5=
EXTT6=
EXTT7=
EXTT8=
EXTT9=
EXTT10=
EXTT11=
EXTT12=
EXTT13=
EXTT14=
EXTT15=
EXTT16=
PLAYORDER=
